<svg width="25" height="21" viewBox="0 0 25 21" fill="none" xmlns="http://www.w3.org/2000/svg">
<g filter="url(#filter0_d_352_8546)">
<path fill-rule="evenodd" clip-rule="evenodd" d="M5 4.38489L14.735 1.84625V11.1538L10.7742 10.0656C10.84 11.043 10.1212 11.8975 9.14699 12C8.15481 11.8926 7.43104 11.011 7.519 10.0169V9.34038L5 8.61517V4.38489Z" stroke="#D6D6D6" stroke-width="1.5" stroke-linecap="round" stroke-linejoin="round"/>
<path d="M19.9287 6.78404C20.3429 6.78404 20.6787 6.44825 20.6787 6.03404C20.6787 5.61983 20.3429 5.28404 19.9287 5.28404V6.78404ZM18.4641 5.28404C18.0499 5.28404 17.7141 5.61983 17.7141 6.03404C17.7141 6.44825 18.0499 6.78404 18.4641 6.78404V5.28404ZM17.6789 10.7496C17.9699 11.0444 18.4448 11.0474 18.7396 10.7564C19.0343 10.4654 19.0374 9.99057 18.7464 9.6958L17.6789 10.7496ZM17.7124 8.64845C17.4214 8.35368 16.9465 8.35063 16.6517 8.64164C16.357 8.93265 16.3539 9.40751 16.6449 9.70228L17.7124 8.64845ZM18.7475 2.37355C19.0388 2.079 19.0361 1.60414 18.7415 1.3129C18.447 1.02167 17.9721 1.02436 17.6809 1.31891L18.7475 2.37355ZM16.6453 2.36626C16.3541 2.66081 16.3568 3.13567 16.6513 3.4269C16.9459 3.71814 17.4207 3.71545 17.712 3.4209L16.6453 2.36626ZM15.4851 11.1538C15.4851 10.7396 15.1493 10.4038 14.7351 10.4038C14.3209 10.4038 13.9851 10.7396 13.9851 11.1538H15.4851ZM13.9851 12C13.9851 12.4142 14.3209 12.75 14.7351 12.75C15.1493 12.75 15.4851 12.4142 15.4851 12H13.9851ZM13.9851 1.84621C13.9851 2.26043 14.3209 2.59621 14.7351 2.59621C15.1493 2.59621 15.4851 2.26043 15.4851 1.84621H13.9851ZM15.4851 1C15.4851 0.585786 15.1493 0.25 14.7351 0.25C14.3209 0.25 13.9851 0.585786 13.9851 1H15.4851ZM4.25 4.38484C4.25 4.79905 4.58579 5.13484 5 5.13484C5.41421 5.13484 5.75 4.79905 5.75 4.38484H4.25ZM5.75 3.53862C5.75 3.12441 5.41421 2.78862 5 2.78862C4.58579 2.78862 4.25 3.12441 4.25 3.53862H5.75ZM4.25 9.46136C4.25 9.87557 4.58579 10.2114 5 10.2114C5.41421 10.2114 5.75 9.87557 5.75 9.46136H4.25ZM5.75 8.61515C5.75 8.20093 5.41421 7.86515 5 7.86515C4.58579 7.86515 4.25 8.20093 4.25 8.61515H5.75ZM7.68226 8.60829C7.27796 8.51821 6.87719 8.77295 6.78712 9.17725C6.69705 9.58155 6.95178 9.98232 7.35608 10.0724L7.68226 8.60829ZM10.6113 10.7976C11.0156 10.8877 11.4164 10.6329 11.5064 10.2286C11.5965 9.82434 11.3418 9.42357 10.9375 9.3335L10.6113 10.7976ZM19.9287 5.28404H18.4641V6.78404H19.9287V5.28404ZM18.7464 9.6958L17.7124 8.64845L16.6449 9.70228L17.6789 10.7496L18.7464 9.6958ZM17.6809 1.31891L16.6453 2.36626L17.712 3.4209L18.7475 2.37355L17.6809 1.31891ZM13.9851 11.1538V12H15.4851V11.1538H13.9851ZM15.4851 1.84621V1H13.9851V1.84621H15.4851ZM5.75 4.38484V3.53862H4.25V4.38484H5.75ZM5.75 9.46136V8.61515H4.25V9.46136H5.75ZM7.35608 10.0724L10.6113 10.7976L10.9375 9.3335L7.68226 8.60829L7.35608 10.0724Z" fill="#D6D6D6"/>
</g>
<defs>
<filter id="filter0_d_352_8546" x="0.25" y="0.25" width="24.4287" height="20.5" filterUnits="userSpaceOnUse" color-interpolation-filters="sRGB">
<feFlood flood-opacity="0" result="BackgroundImageFix"/>
<feColorMatrix in="SourceAlpha" type="matrix" values="0 0 0 0 0 0 0 0 0 0 0 0 0 0 0 0 0 0 127 0" result="hardAlpha"/>
<feOffset dy="4"/>
<feGaussianBlur stdDeviation="2"/>
<feComposite in2="hardAlpha" operator="out"/>
<feColorMatrix type="matrix" values="0 0 0 0 0 0 0 0 0 0 0 0 0 0 0 0 0 0 0.25 0"/>
<feBlend mode="normal" in2="BackgroundImageFix" result="effect1_dropShadow_352_8546"/>
<feBlend mode="normal" in="SourceGraphic" in2="effect1_dropShadow_352_8546" result="shape"/>
</filter>
</defs>
</svg>
