<svg width="20" height="23" viewBox="0 0 20 23" fill="none" xmlns="http://www.w3.org/2000/svg">
<g filter="url(#filter0_d_155_934)">
<path d="M5.93871 6.805L6.62097 7.1165C6.66561 7.01872 6.68871 6.91249 6.68871 6.805H5.93871ZM5 8.861L4.31775 8.5495C4.26338 8.66859 4.24112 8.79983 4.2532 8.93018L5 8.861ZM6.35293 10.73L6.68639 10.0582C6.66585 10.048 6.64486 10.0388 6.62347 10.0305L6.35293 10.73ZM9.69449 11.53L9.69002 12.28L9.69897 12.28L9.69449 11.53ZM13.0361 10.73L12.7133 10.0529L12.7026 10.0582L13.0361 10.73ZM14.0304 9.916L14.6267 10.3709C14.6545 10.3343 14.679 10.2953 14.6997 10.2543L14.0304 9.916ZM13.9192 7.833L13.2274 8.12269C13.245 8.16478 13.2664 8.20518 13.2914 8.24337L13.9192 7.833ZM13.3826 5.664L14.1296 5.59645C14.1289 5.58874 14.1281 5.58105 14.1271 5.57337L13.3826 5.664ZM9.69449 14L9.68357 14.7499C9.69085 14.75 9.69813 14.75 9.70542 14.7499L9.69449 14ZM9.69357 0.897C8.1332 0.897 6.96375 1.61074 6.21662 2.74609C5.4937 3.84466 5.18871 5.29588 5.18871 6.805H6.68871C6.68871 5.46712 6.96382 4.33934 7.46966 3.57066C7.95129 2.83876 8.65927 2.397 9.69357 2.397V0.897ZM5.25646 6.4935L4.31775 8.5495L5.68225 9.1725L6.62097 7.1165L5.25646 6.4935ZM4.2532 8.93018C4.35618 10.0418 5.04736 11.0292 6.08239 11.4295L6.62347 10.0305C6.16369 9.85267 5.80178 9.38529 5.7468 8.79182L4.2532 8.93018ZM6.01948 11.4018C7.16861 11.9722 8.42023 12.2724 9.69002 12.28L9.69897 10.78C8.66089 10.7738 7.63399 10.5286 6.68639 10.0582L6.01948 11.4018ZM9.69897 12.28C10.9688 12.2724 12.2204 11.9722 13.3695 11.4018L12.7026 10.0582C11.755 10.5286 10.7281 10.7738 9.69002 10.78L9.69897 12.28ZM13.3588 11.407C13.8558 11.1701 14.2889 10.8136 14.6267 10.3709L13.4341 9.4611C13.2357 9.72107 12.9878 9.92214 12.7133 10.053L13.3588 11.407ZM14.6997 10.2543C15.1532 9.35699 15.0967 8.26369 14.5469 7.42263L13.2914 8.24337C13.5453 8.63179 13.5751 9.15406 13.361 9.57772L14.6997 10.2543ZM14.611 7.5433C14.3535 6.92841 14.1906 6.27069 14.1296 5.59645L12.6357 5.73155C12.7103 6.55687 12.9099 7.36458 13.2274 8.12269L14.611 7.5433ZM14.1271 5.57337C13.9761 4.33286 13.5764 3.1726 12.8437 2.30836C12.0912 1.42076 11.0285 0.897 9.69357 0.897V2.397C10.5947 2.397 11.2366 2.73223 11.6996 3.27839C12.1824 3.8479 12.5093 4.69614 12.6381 5.75463L14.1271 5.57337ZM10.4436 1.647V0H8.94357V1.647H10.4436ZM6.8919 13.7737C7.70364 14.3919 8.67681 14.7353 9.68357 14.7499L9.70542 13.2501C9.02866 13.2402 8.3646 13.0098 7.80074 12.5803L6.8919 13.7737ZM9.70542 14.7499C10.7122 14.7353 11.6853 14.3919 12.4971 13.7737L11.5882 12.5803C11.0244 13.0098 10.3603 13.2402 9.68357 13.2501L9.70542 14.7499Z" fill="#D6D6D6"/>
</g>
<defs>
<filter id="filter0_d_155_934" x="0.25" y="0" width="18.7534" height="22.75" filterUnits="userSpaceOnUse" color-interpolation-filters="sRGB">
<feFlood flood-opacity="0" result="BackgroundImageFix"/>
<feColorMatrix in="SourceAlpha" type="matrix" values="0 0 0 0 0 0 0 0 0 0 0 0 0 0 0 0 0 0 127 0" result="hardAlpha"/>
<feOffset dy="4"/>
<feGaussianBlur stdDeviation="2"/>
<feComposite in2="hardAlpha" operator="out"/>
<feColorMatrix type="matrix" values="0 0 0 0 0 0 0 0 0 0 0 0 0 0 0 0 0 0 0.25 0"/>
<feBlend mode="normal" in2="BackgroundImageFix" result="effect1_dropShadow_155_934"/>
<feBlend mode="normal" in="SourceGraphic" in2="effect1_dropShadow_155_934" result="shape"/>
</filter>
</defs>
</svg>
