<svg width="10" height="11" viewBox="0 0 10 11" fill="none" xmlns="http://www.w3.org/2000/svg">
<path fill-rule="evenodd" clip-rule="evenodd" d="M6.00988 3.9259C6.00942 4.439 5.58408 4.85462 5.05975 4.85432C4.53541 4.85402 4.11056 4.43791 4.11072 3.92481C4.11087 3.41172 4.53597 2.99585 5.0603 2.99585C5.31226 2.99596 5.55385 3.09401 5.73193 3.26842C5.91001 3.44284 6.00999 3.67934 6.00988 3.9259Z" stroke="white" stroke-linecap="round" stroke-linejoin="round"/>
<path fill-rule="evenodd" clip-rule="evenodd" d="M6.04028 6.22473H4.08195C3.39776 6.24576 2.85425 6.7946 2.85425 7.46446C2.85425 8.13432 3.39776 8.68315 4.08195 8.70419H6.04028C6.72447 8.68315 7.26798 8.13432 7.26798 7.46446C7.26798 6.7946 6.72447 6.24576 6.04028 6.22473V6.22473Z" stroke="white" stroke-linecap="round" stroke-linejoin="round"/>
<path fill-rule="evenodd" clip-rule="evenodd" d="M8.41161 4.63663C8.41138 5.02908 8.08612 5.34706 7.68508 5.34691C7.28404 5.34676 6.95903 5.02854 6.95911 4.63609C6.95918 4.24364 7.28431 3.92554 7.68536 3.92554C7.87804 3.92554 8.06283 4.00047 8.19904 4.13384C8.33525 4.2672 8.41172 4.44808 8.41161 4.63663V4.63663Z" stroke="white" stroke-linecap="round" stroke-linejoin="round"/>
<path fill-rule="evenodd" clip-rule="evenodd" d="M1.59741 4.63659C1.59741 5.02909 1.92257 5.34728 2.32366 5.34728C2.72476 5.34728 3.04991 5.02909 3.04991 4.63659C3.04991 4.24409 2.72476 3.9259 2.32366 3.9259C1.92257 3.9259 1.59741 4.24409 1.59741 4.63659V4.63659Z" stroke="white" stroke-linecap="round" stroke-linejoin="round"/>
<path d="M7.89032 5.99792C7.61418 5.99792 7.39032 6.22178 7.39032 6.49792C7.39032 6.77407 7.61418 6.99792 7.89032 6.99792V5.99792ZM8.4349 6.49792L8.44505 5.99792H8.4349V6.49792ZM8.4349 8.39431V8.89442L8.44505 8.89421L8.4349 8.39431ZM7.89032 7.89431C7.61418 7.89431 7.39032 8.11817 7.39032 8.39431C7.39032 8.67046 7.61418 8.89431 7.89032 8.89431V7.89431ZM2.11866 6.99792C2.3948 6.99792 2.61866 6.77407 2.61866 6.49792C2.61866 6.22178 2.3948 5.99792 2.11866 5.99792V6.99792ZM1.57407 6.49792V5.99782L1.56393 5.99803L1.57407 6.49792ZM1.57407 8.39431L1.56393 8.89431H1.57407V8.39431ZM2.11866 8.89431C2.3948 8.89431 2.61866 8.67046 2.61866 8.39431C2.61866 8.11817 2.3948 7.89431 2.11866 7.89431V8.89431ZM7.89032 6.99792H8.4349V5.99792H7.89032V6.99792ZM8.42476 6.99782C8.68989 7.0032 8.88398 7.21203 8.88398 7.44612H9.88398C9.88398 6.64796 9.23454 6.01405 8.44505 5.99803L8.42476 6.99782ZM8.88398 7.44612C8.88398 7.68021 8.68989 7.88904 8.42476 7.89442L8.44505 8.89421C9.23454 8.87819 9.88398 8.24428 9.88398 7.44612H8.88398ZM8.4349 7.89431H7.89032V8.89431H8.4349V7.89431ZM2.11866 5.99792H1.57407V6.99792H2.11866V5.99792ZM1.56393 5.99803C0.774436 6.01405 0.125 6.64796 0.125 7.44612H1.125C1.125 7.21203 1.31909 7.0032 1.58422 6.99782L1.56393 5.99803ZM0.125 7.44612C0.125 8.24428 0.774436 8.87819 1.56393 8.89421L1.58422 7.89442C1.31909 7.88904 1.125 7.68021 1.125 7.44612H0.125ZM1.57407 8.89431H2.11866V7.89431H1.57407V8.89431Z" fill="white"/>
</svg>
